<?xml version="1.0" encoding="UTF-8"?>
<svg width="19px" height="19px" viewBox="0 0 19 19" version="1.1" xmlns="http://www.w3.org/2000/svg" xmlns:xlink="http://www.w3.org/1999/xlink">
    <title>android-contact</title>
    <g id="Page-1" stroke="none" stroke-width="1" fill="none" fill-rule="evenodd">
        <g id="iPhone-8" transform="translate(-197.000000, -149.000000)">
            <g id="android-contact" transform="translate(197.000000, 149.000000)">
                <path d="M13.2148958,13.5674349 C12.1186354,14.1905755 10.8509297,14.5462812 9.49980208,14.5462812 C8.14892187,14.5462812 6.88141406,14.1909219 5.7852526,13.5680286 C2.87736198,14.4554375 0.656192708,16.4270833 0,19 L19,19 C18.3441536,16.4270833 16.1229844,14.4543984 13.2148958,13.5674349 Z" id="Path" fill="#AAEFE8" fill-rule="nonzero"></path>
                <path d="M9.49980208,0 C5.89420573,0 2.97127344,2.92555469 2.97127344,6.53189323 C2.97127344,10.1382812 5.89420573,13.0617578 9.49980208,13.0617578 C13.1053984,13.0617578 16.0283307,10.1382813 16.0283307,6.53189323 C16.0283307,2.92555469 13.1053984,0 9.49980208,0 Z M9.49980208,11.4289948 C7.42375521,11.4289948 5.64967969,10.1432292 4.9373776,8.3125 L14.0622266,8.3125 C13.3499245,10.1432292 11.5757995,11.4289948 9.49980208,11.4289948 Z" id="Shape" fill="#AAEFE8" fill-rule="nonzero"></path>
                <circle id="Oval" fill="#CFFFFA" cx="7" cy="5" r="1"></circle>
                <circle id="Oval" fill="#CFFFFA" cx="12" cy="5" r="1"></circle>
            </g>
        </g>
    </g>
</svg>